<?xml version="1.0" standalone="no"?>
<!DOCTYPE svg PUBLIC "-//W3C//DTD SVG 20010904//EN"
 "http://www.w3.org/TR/2001/REC-SVG-20010904/DTD/svg10.dtd">
<svg version="1.0" xmlns="http://www.w3.org/2000/svg"
 width="300.000000pt" height="200.000000pt" viewBox="0 0 300.000000 200.000000"
 preserveAspectRatio="xMidYMid meet">
<metadata>
Created by potrace 1.10, written by Peter Selinger 2001-2011
</metadata>
<g transform="translate(0.000000,200.000000) scale(0.100000,-0.100000)"
fill="#000000" stroke="none">
<path d="M920 1000 l0 -700 580 0 580 0 0 700 0 700 -580 0 -580 0 0 -700z
m96 653 c13 -17 15 -17 28 0 7 9 19 17 26 17 7 0 19 -8 26 -17 13 -17 15 -17
28 0 16 21 46 23 46 2 0 -8 7 -15 15 -15 9 0 18 7 21 15 8 20 34 19 49 -2 12
-17 14 -17 35 2 21 19 23 19 35 2 15 -21 34 -22 41 -2 4 8 15 15 25 15 10 0
19 -7 19 -15 0 -8 9 -15 20 -15 11 0 20 4 20 9 0 18 33 21 46 4 13 -17 15 -17
28 0 7 9 19 17 26 17 7 0 19 -8 26 -17 13 -17 15 -17 28 0 16 21 46 23 46 2 0
-8 7 -15 15 -15 9 0 18 7 21 15 4 8 12 15 19 15 7 0 15 -7 19 -15 3 -8 10 -15
16 -15 6 0 18 7 26 15 9 8 22 15 30 15 8 0 14 -7 14 -15 0 -8 7 -15 15 -15 9
0 18 7 21 15 4 8 13 15 20 15 8 0 17 -7 20 -15 4 -8 13 -15 20 -15 8 0 17 7
20 15 7 17 34 21 34 5 0 -20 31 -23 44 -4 12 16 16 16 31 4 27 -23 35 -53 16
-67 -14 -10 -14 -15 -3 -34 12 -18 12 -26 1 -46 -12 -22 -11 -26 4 -34 21 -12
22 -35 2 -43 -20 -7 -19 -26 1 -41 15 -10 15 -13 0 -27 -18 -18 -22 -48 -6
-48 15 0 12 -26 -5 -40 -13 -11 -15 8 -15 159 l0 171 -234 0 c-129 0 -241 2
-249 5 -10 5 -13 -2 -12 -25 1 -17 -2 -33 -7 -36 -4 -3 -6 -10 -3 -15 4 -5 -8
-7 -28 -4 -25 4 -40 0 -61 -16 -35 -27 -46 -16 -16 16 17 18 30 23 49 19 25
-6 25 -6 6 9 -18 14 -22 13 -47 -5 -16 -10 -28 -16 -28 -11 0 4 -8 -8 -18 -27
-15 -32 -16 -38 -2 -67 8 -18 21 -32 27 -33 9 0 7 -7 -4 -20 -18 -21 -49 -27
-55 -10 -1 5 -23 -4 -47 -20 -24 -17 -39 -30 -32 -30 6 0 23 7 36 16 13 9 32
14 42 12 15 -4 14 -7 -9 -18 -14 -7 -29 -21 -31 -32 -4 -12 -10 -17 -17 -13
-9 6 -9 10 1 17 9 6 0 7 -26 3 -21 -3 -50 -15 -62 -27 -13 -12 -23 -17 -23
-12 0 5 -5 2 -11 -6 -8 -11 -9 -2 -6 34 3 30 1 43 -4 35 -5 -8 -9 -29 -9 -48
0 -27 -3 -32 -18 -29 -15 4 -18 -1 -18 -31 0 -58 -7 -110 -15 -106 -12 8 -17
73 -9 110 6 28 6 35 -3 26 -17 -17 -12 -120 6 -155 15 -28 14 -46 -2 -46 -4 0
-13 10 -20 23 -11 22 -11 22 -6 -3 11 -49 13 -55 29 -85 l16 -30 -2 35 c-1 37
16 80 32 80 11 0 12 -13 14 -126 1 -46 -3 -70 -9 -67 -6 2 -12 15 -13 29 -2
30 -9 44 -22 44 -5 0 -7 -8 -3 -17 6 -16 4 -16 -15 1 -30 26 -49 86 -31 97 10
6 11 9 2 9 -15 0 -17 38 -4 73 8 19 6 27 -5 31 -13 5 -14 -15 -13 -139 0 -80
4 -145 8 -145 10 0 51 -35 51 -44 0 -4 -13 0 -30 9 -36 18 -40 2 -6 -20 32
-21 43 -59 15 -52 -11 3 -19 0 -19 -6 0 -7 -5 -5 -10 3 -6 10 -10 -47 -10
-171 l0 -187 30 -4 c35 -5 39 3 8 17 -21 9 -23 18 -26 92 -2 72 0 84 16 94 19
12 19 12 1 30 -13 13 -19 34 -19 65 l0 47 20 -26 c26 -32 81 -51 127 -42 22 4
33 3 29 -4 -3 -5 0 -11 6 -13 7 -3 -16 -3 -52 0 -36 2 -76 11 -88 19 -31 19
-38 11 -11 -13 16 -14 40 -20 97 -22 43 -2 81 -8 86 -13 6 -5 19 -9 30 -8 15
0 16 2 6 6 -24 9 -80 65 -74 75 3 5 21 0 40 -11 34 -20 34 -20 24 -1 -6 11
-18 20 -27 20 -9 0 -13 3 -10 7 4 3 2 12 -3 18 -7 9 -5 12 9 11 25 -1 64 -51
64 -82 0 -13 4 -27 9 -30 5 -3 7 6 4 20 -5 29 5 34 24 11 11 -13 10 -14 -5 -9
-15 6 -16 4 -7 -13 9 -17 6 -21 -23 -31 -30 -11 -89 -10 -140 4 -15 4 -14 1 5
-10 29 -18 150 -22 150 -5 0 5 5 7 10 4 6 -3 10 -12 10 -19 0 -11 -24 -12
-115 -8 -84 3 -119 1 -130 -8 -18 -15 -21 -100 -3 -118 8 -8 48 -12 112 -12
69 0 96 -3 86 -10 -9 -6 -10 -10 -3 -10 6 0 15 4 18 10 9 15 61 12 75 -5 16
-20 60 -20 60 0 0 9 9 15 25 15 29 0 31 -7 10 -37 -14 -19 -24 -22 -88 -21
-51 1 -63 4 -42 9 28 6 24 9 -15 13 -8 0 -21 -6 -28 -14 -10 -11 -15 -12 -18
-2 -3 6 -12 12 -20 12 -9 0 -12 5 -8 12 4 7 3 8 -4 4 -17 -10 -15 -24 6 -29 9
-3 -45 -5 -122 -6 l-139 -1 7 227 c4 126 6 395 6 600 l0 372 32 3 c76 7 442
-3 428 -12 -13 -8 -12 -10 3 -10 9 0 17 3 18 8 0 4 2 14 4 22 2 13 -30 15
-251 12 l-254 -3 -1 -592 c-1 -326 -2 -603 -3 -617 l-1 -25 512 -3 c510 -2
512 -2 515 18 3 19 5 20 23 6 19 -14 19 -15 -8 -40 -33 -31 -45 -32 -63 -9
-13 17 -15 17 -29 -1 -14 -18 -16 -18 -33 -3 -23 21 -42 22 -42 2 0 -8 -6 -15
-14 -15 -7 0 -19 7 -26 15 -16 19 -36 19 -43 1 -6 -16 -32 -15 -49 2 -8 8 -18
7 -38 -3 -24 -12 -30 -12 -40 -1 -9 12 -15 12 -38 0 -22 -11 -28 -11 -42 1
-13 11 -18 11 -34 -1 -17 -12 -22 -12 -37 2 -14 13 -20 13 -38 2 -17 -11 -25
-11 -42 0 -18 11 -24 11 -40 -4 -18 -16 -20 -16 -37 0 -17 15 -22 15 -47 2
-25 -13 -30 -13 -40 1 -10 13 -15 13 -33 2 -17 -11 -25 -11 -46 0 -21 12 -27
11 -42 -3 -15 -15 -18 -15 -33 -1 -20 17 -41 20 -41 5 0 -14 -26 -13 -50 2
-16 11 -22 9 -35 -7 -15 -20 -15 -20 -35 5 -24 31 -25 39 -3 55 17 12 17 14
-2 35 -18 20 -18 22 -2 31 23 13 22 31 -3 47 -24 14 -26 32 -5 32 23 0 31 31
12 42 -21 11 -22 34 -2 42 8 3 15 12 15 21 0 8 -7 15 -15 15 -8 0 -15 7 -15
15 0 9 7 18 15 21 8 4 15 13 15 20 0 8 -7 17 -15 20 -20 8 -19 24 3 40 16 13
16 15 0 28 -22 16 -23 30 -3 46 8 7 15 19 15 26 0 8 -7 14 -15 14 -8 0 -15 6
-15 14 0 8 7 16 15 20 8 3 15 12 15 21 0 9 -7 18 -15 21 -20 8 -19 23 2 47 17
18 17 19 0 32 -21 15 -22 31 -2 39 8 3 15 12 15 20 0 7 -7 16 -15 20 -8 3 -15
12 -15 20 0 7 7 16 15 20 8 3 15 12 15 20 0 7 -7 16 -15 20 -8 3 -15 12 -15
21 0 8 7 15 15 15 18 0 20 21 3 38 -9 9 -8 18 2 38 13 23 13 27 -5 41 -19 13
-19 15 -2 27 21 16 22 42 1 50 -15 6 -15 8 0 31 20 30 20 45 2 45 -7 0 -16 9
-19 20 -4 15 0 20 14 20 23 0 25 25 4 46 -8 9 -15 12 -15 8 0 -4 -3 -5 -6 -2
-8 8 38 56 55 57 8 1 20 -7 27 -16z m1000 -310 c-3 -137 -6 -272 -6 -301 0
-38 -3 -51 -12 -46 -7 4 -8 3 -4 -4 10 -16 -25 -74 -41 -68 -7 3 -13 1 -13 -4
0 -6 -4 -10 -9 -10 -5 0 -4 11 2 25 10 20 13 21 18 8 5 -14 7 -13 11 5 4 12 2
20 -3 16 -5 -3 -9 7 -9 21 0 14 -4 24 -9 21 -5 -3 -8 -17 -8 -32 0 -38 -19
-53 -38 -28 -8 10 -14 26 -13 34 2 8 -1 21 -6 29 -5 8 -1 20 12 33 20 21 42
17 42 -7 0 -17 22 -25 49 -18 14 3 21 13 21 29 0 17 -4 22 -15 18 -8 -4 -13
-10 -10 -14 11 -19 -13 -18 -28 1 -21 24 -21 33 0 50 15 13 15 12 4 -8 -6 -13
-8 -23 -4 -23 21 0 53 13 53 21 0 5 -7 6 -15 3 -16 -7 -18 -1 -9 33 4 13 10
20 15 17 5 -3 8 15 7 40 0 25 -5 43 -10 40 -4 -3 -8 0 -8 5 0 6 -10 11 -23 11
-32 0 -37 8 -26 37 11 30 -11 73 -38 73 -15 0 -15 -1 -1 -12 26 -21 28 -46 7
-70 l-20 -23 7 25 c6 22 5 23 -10 11 -10 -9 -13 -18 -7 -25 11 -15 0 -41 -18
-41 -22 0 -50 57 -40 83 10 25 27 29 35 7 10 -25 24 -17 24 14 0 43 -39 77
-55 50 -5 -6 -20 3 -40 25 -29 32 -65 51 -50 26 3 -5 13 -10 21 -10 8 0 14 -3
14 -7 0 -5 11 -21 24 -36 23 -26 25 -27 35 -10 9 16 12 16 20 3 14 -21 2 -29
-50 -34 -54 -6 -89 14 -89 49 0 14 -4 25 -10 25 -5 0 -7 -7 -4 -15 8 -19 -5
-19 -29 0 -18 13 -18 15 2 61 13 28 17 50 12 53 -5 4 -9 15 -8 26 1 14 -3 19
-15 17 -12 -2 -16 2 -12 12 5 12 28 16 102 19 l97 3 -98 2 c-83 2 -99 0 -104
-15 -5 -14 -8 -14 -12 -2 -5 12 -11 12 -41 1 -35 -13 -35 -13 -4 -8 24 4 37
-1 54 -19 28 -30 19 -46 -10 -20 -12 11 -33 19 -48 20 -22 0 -27 5 -29 27 l-2
27 241 1 240 0 -6 -247z m-543 164 c4 3 7 -3 7 -15 0 -16 -5 -20 -21 -17 -15
3 -19 0 -15 -10 3 -8 1 -15 -4 -15 -5 0 -12 9 -15 20 -8 26 13 54 30 40 6 -5
15 -7 18 -3z m82 -17 c0 -25 11 -40 30 -40 5 0 4 5 -3 12 -14 14 -16 52 -3 44
5 -4 11 -1 13 6 3 9 9 8 22 -4 13 -13 15 -22 7 -35 -10 -17 -10 -17 -11 0 0 9
-7 17 -15 17 -8 0 -15 -5 -15 -11 0 -5 5 -7 10 -4 9 6 14 -7 11 -27 -2 -17 27
5 38 28 6 14 15 22 21 19 13 -8 3 -28 -21 -46 -12 -7 -28 -20 -37 -27 -15 -12
-15 -13 4 -9 26 5 26 -12 2 -37 -23 -22 -31 -20 -18 4 6 11 7 20 3 19 -4 -1
-10 0 -13 1 -24 9 -42 5 -50 -10 -5 -9 -7 -19 -5 -22 3 -3 -2 -5 -10 -5 -11 0
-12 4 -4 14 6 7 8 13 3 13 -5 0 -3 4 4 9 9 5 2 8 -20 8 -27 1 -29 -1 -13 -7
11 -5 14 -9 8 -9 -7 -1 -13 -8 -13 -17 0 -8 -4 -13 -9 -10 -5 4 -11 0 -14 -6
-4 -10 -7 -10 -16 -1 -6 7 -8 11 -5 8 10 -7 35 16 28 26 -3 5 -10 9 -15 9 -6
0 -8 -4 -5 -9 3 -5 -4 -12 -17 -15 -12 -3 -37 -19 -56 -34 -27 -23 -31 -30
-18 -35 11 -4 14 -2 10 9 -6 17 8 18 26 2 11 -11 13 -10 7 0 -4 6 -1 19 7 27
13 13 16 13 21 0 3 -9 0 -15 -9 -15 -8 0 -14 -3 -12 -7 1 -5 -2 -10 -8 -11 -5
-2 -15 -8 -20 -12 -6 -5 -17 -5 -25 0 -9 5 -19 5 -27 -2 -9 -7 -13 -7 -13 0 0
12 87 82 101 82 5 0 8 5 7 12 -2 6 7 14 20 17 21 6 21 7 -10 20 -18 8 -27 16
-20 19 7 2 18 -1 25 -6 8 -7 16 -6 24 3 6 7 10 14 8 16 -2 2 13 4 32 4 27 0
37 5 39 18 2 17 1 17 -22 2 -22 -14 -24 -14 -24 3 0 26 10 33 40 30 19 -2 25
-9 25 -28z m-145 -11 c10 -18 9 -20 -7 -17 -10 2 -19 11 -21 21 -5 24 15 21
28 -4z m292 -152 c98 -99 143 -237 120 -371 -23 -140 -122 -286 -194 -286 -18
0 -46 -8 -63 -18 -30 -18 -75 -19 -75 -1 0 5 -5 9 -11 9 -8 0 -8 -5 1 -15 10
-12 10 -15 -2 -15 -8 0 -19 5 -24 10 -7 7 -20 0 -40 -21 -23 -26 -25 -29 -7
-20 27 14 73 15 73 1 0 -5 -15 -14 -32 -19 -23 -6 42 -9 213 -10 279 -1 280
-1 263 -69 l-9 -37 -389 -3 c-279 -1 -393 1 -402 9 -20 16 -18 86 2 97 9 5 77
7 153 5 94 -2 129 0 114 7 -35 14 -31 57 7 78 32 18 36 27 18 38 -6 4 -8 3 -5
-3 4 -6 0 -14 -9 -17 -18 -7 -59 20 -101 66 -16 18 -37 34 -46 36 -22 4 -35
-27 -16 -39 12 -7 12 -9 0 -9 -37 0 -119 125 -97 147 9 9 52 -35 70 -71 9 -17
16 -25 16 -18 0 7 -5 23 -11 34 -7 12 -7 24 -2 29 6 6 16 -7 27 -33 10 -24 20
-37 23 -30 4 10 8 10 21 0 12 -10 14 -10 8 0 -4 7 -1 12 8 12 20 0 21 16 1 24
-8 3 -15 0 -15 -7 0 -9 -3 -8 -9 1 -4 7 -6 25 -3 40 3 15 1 24 -3 20 -4 -4 -7
-23 -7 -42 0 -21 -4 -33 -10 -30 -5 4 -8 17 -5 30 2 13 1 21 -4 19 -4 -3 -11
4 -14 16 -6 19 -8 20 -26 3 -18 -16 -19 -15 -29 10 -13 34 -13 39 2 71 8 18
14 22 20 13 4 -7 8 16 8 54 0 59 -2 67 -17 61 -11 -4 -12 -8 -5 -11 7 -2 12
-14 12 -26 0 -34 -21 -87 -31 -80 -5 3 -7 9 -5 13 3 4 6 29 7 55 2 38 8 51 26
63 13 8 23 20 23 25 0 6 -6 5 -15 -2 -12 -10 -18 -10 -30 0 -12 10 -11 18 10
61 14 27 27 49 29 49 3 0 11 3 19 6 24 9 10 -31 -23 -66 -16 -17 -24 -32 -20
-35 5 -3 11 -1 15 5 4 6 11 8 16 5 5 -4 9 1 9 9 0 9 13 39 28 68 35 65 32 86
-9 56 -30 -22 -46 -20 -36 6 10 24 58 32 73 12 16 -23 18 -23 37 -8 13 11 17
10 25 -4 11 -20 4 -56 -9 -48 -8 5 -14 -18 -10 -40 1 -5 -4 -4 -12 2 -11 9
-13 6 -9 -17 3 -20 9 -28 20 -26 10 2 19 4 22 4 3 1 0 5 -7 9 -8 5 -5 20 12
54 13 25 20 50 17 54 -4 4 -2 4 4 1 6 -4 21 4 34 18 12 13 35 28 50 33 41 15
172 12 190 -3 12 -11 17 -10 30 3 13 14 12 15 -3 9 -11 -4 -16 -3 -12 3 7 12
-35 31 -49 22 -5 -3 -6 0 -2 6 14 22 35 12 88 -41z m92 -41 c-4 -17 3 -32 29
-60 19 -20 29 -36 21 -36 -17 0 -44 28 -44 46 0 8 -4 14 -9 14 -5 0 -11 8 -15
18 -3 9 -9 23 -12 30 -4 7 2 12 15 12 17 0 20 -4 15 -24z m-608 -58 c-18 -58
-37 -98 -48 -98 -4 0 -8 -6 -8 -14 0 -8 -4 -17 -9 -21 -9 -5 -7 34 5 92 4 24
51 83 64 83 5 0 3 -19 -4 -42z m865 -19 c-9 -15 -10 -24 -2 -32 14 -14 14 -47
1 -47 -15 0 -12 -38 3 -43 9 -3 9 -10 -2 -31 -11 -20 -12 -29 -3 -38 17 -17
15 -45 -4 -52 -9 -3 -19 -4 -24 -1 -4 2 -7 -3 -7 -13 0 -9 -1 -35 -2 -57 -2
-35 -3 -37 -11 -17 -5 12 -15 22 -22 22 -9 0 -10 3 -2 8 6 4 16 21 21 37 6 17
16 29 22 28 8 -2 11 40 11 144 0 140 1 146 17 130 15 -15 16 -20 4 -38z m-131
17 c0 -28 -10 -38 -27 -28 -13 8 1 52 17 52 5 0 10 -11 10 -24z m48 -9 c11
-13 -3 -97 -17 -97 -11 0 -30 75 -20 78 5 2 9 10 9 18 0 18 14 18 28 1z m-64
-50 c18 -17 28 -65 16 -72 -6 -4 -8 -11 -5 -16 3 -5 0 -6 -8 -4 -22 9 -49 63
-42 85 7 23 21 26 39 7z m-39 -63 c9 -20 15 -37 13 -39 -8 -8 -37 24 -43 48
-10 39 10 33 30 -9z m2 -106 c-2 -7 0 -23 4 -35 9 -23 2 -29 -16 -15 -9 6 -10
23 -6 55 1 4 6 7 12 7 6 0 9 -6 6 -12z m-787 -51 c0 -5 -6 -5 -12 -1 -10 5
-10 4 -2 -5 6 -7 20 -14 30 -15 10 -2 19 -9 20 -17 0 -8 4 -22 8 -32 15 -32
-5 -33 -34 0 -16 18 -30 28 -32 22 -2 -5 -4 14 -5 42 -2 47 -1 50 12 33 8 -10
15 -23 15 -27z m980 -35 c0 -5 -7 -15 -15 -22 -13 -11 -15 -7 -15 24 0 33 2
36 15 22 8 -8 15 -19 15 -24z m-196 -5 c-4 -12 -11 -25 -17 -28 -5 -4 -7 -13
-5 -20 3 -8 1 -24 -3 -36 -5 -13 -4 -25 1 -28 5 -3 12 11 16 31 4 21 13 48 20
62 7 14 10 30 7 36 -3 6 7 -2 22 -18 24 -24 26 -31 16 -48 -6 -10 -9 -23 -6
-28 3 -5 -2 -13 -11 -18 -12 -6 -13 -11 -5 -16 10 -7 41 48 41 73 0 9 39 27
43 19 1 -1 8 -13 15 -25 8 -16 12 -86 12 -248 0 -173 -3 -225 -12 -226 -73 -5
-268 -2 -268 4 0 4 58 7 129 7 l129 0 7 31 c8 35 0 51 -10 19 -4 -12 -18 -25
-32 -31 -33 -12 -180 -12 -188 1 -3 6 -12 10 -18 10 -7 0 -6 -4 3 -10 12 -8 9
-10 -13 -10 -16 0 -26 -4 -22 -9 10 -17 -12 -21 -25 -6 -14 17 -46 20 -55 5
-3 -6 -36 -10 -73 -10 -39 0 -62 4 -54 9 7 4 12 12 10 17 -2 5 1 10 6 11 5 1
12 7 16 13 6 10 15 9 40 -4 39 -19 40 -19 40 -5 0 5 -4 7 -10 4 -5 -3 -10 -2
-10 2 0 5 71 10 157 11 91 2 163 8 170 14 7 6 13 32 13 58 0 61 -14 67 -153
63 l-109 -4 7 23 c9 29 11 31 24 23 6 -3 9 -11 6 -16 -4 -5 19 -9 55 -8 50 1
64 6 78 24 14 18 22 20 42 13 31 -12 75 9 59 28 -7 9 -2 15 20 25 20 9 26 16
18 21 -9 6 -9 8 1 8 7 0 12 15 12 42 0 47 -8 48 -12 0 -1 -21 -9 -34 -20 -38
-10 -3 -18 -9 -18 -13 0 -4 -14 -8 -31 -8 l-31 0 22 17 c13 10 20 22 16 29 -4
6 0 14 9 18 10 3 21 0 25 -8 5 -7 12 -10 16 -6 4 3 2 12 -4 20 -8 10 -6 16 9
25 24 15 25 38 0 45 -14 3 -17 0 -14 -13 3 -12 -6 -22 -29 -33 -22 -10 -34
-24 -35 -38 -2 -24 -32 -61 -44 -54 -4 3 -10 1 -14 -5 -6 -10 13 -14 47 -11 9
1 22 -7 28 -18 12 -23 1 -28 -18 -9 -9 9 -12 9 -12 -2 -1 -12 -3 -12 -13 1 -7
9 -21 19 -32 21 -11 2 -19 10 -17 17 1 7 -2 10 -8 6 -17 -11 -11 10 10 33 12
12 27 22 34 22 8 0 20 8 27 17 15 18 16 18 -31 -1 -22 -9 -50 41 -43 77 3 15
9 27 14 27 5 0 9 11 9 23 0 27 9 39 22 31 5 -3 6 -15 2 -27z m187 -80 c-13
-35 -27 -30 -23 8 3 28 7 33 18 25 8 -8 10 -19 5 -33z m-903 -30 c7 -6 17 -19
23 -29 9 -16 7 -17 -18 -6 -39 17 -53 28 -53 44 0 14 24 9 48 -9z m651 1 c-1
-1 2 -12 8 -23 8 -15 8 -27 -3 -45 -7 -14 -13 -19 -14 -12 0 7 -4 10 -10 7 -5
-3 -10 -1 -10 6 0 18 23 79 28 75 2 -3 3 -6 1 -8z m251 -53 c-11 -14 -11 -20
-1 -37 10 -17 10 -25 0 -45 -11 -20 -10 -25 7 -38 18 -14 18 -16 2 -29 -19
-14 -24 -46 -8 -46 14 0 13 -26 -2 -51 -10 -17 -10 -23 0 -26 17 -6 15 -30 -3
-37 -13 -5 -15 19 -15 176 0 170 1 181 17 166 14 -14 14 -19 3 -33z m-897 -8
c25 -13 44 -20 41 -15 -3 4 0 8 6 8 6 0 10 -8 8 -17 -5 -25 -57 -21 -103 7
-68 42 -30 56 48 17z m636 -43 c4 3 13 0 21 -5 13 -8 12 -12 -4 -24 -11 -8
-27 -15 -35 -15 -9 0 -23 -5 -31 -10 -11 -7 -7 -10 17 -10 20 0 40 8 52 21 24
26 46 17 29 -10 -17 -27 -75 -34 -109 -14 -27 16 -29 16 -49 -2 -11 -10 -20
-24 -20 -32 0 -9 -14 -13 -44 -13 -56 0 -68 15 -19 23 24 4 40 2 45 -6 4 -7 8
-7 8 -2 -1 6 -10 21 -21 34 -17 21 -23 23 -40 13 -10 -7 -24 -12 -31 -12 -7 1
-2 7 12 15 34 20 89 19 97 -1 5 -13 11 -10 37 14 39 37 70 54 74 41 2 -5 7 -7
11 -5z m-251 -76 c18 -18 14 -31 -8 -25 -11 3 -20 0 -20 -6 0 -8 -3 -8 -11 0
-14 14 -5 43 14 43 7 0 18 -5 25 -12z"/>
<path d="M1050 1513 c0 -38 -3 -77 -6 -89 -4 -14 -1 -21 9 -21 9 0 12 7 9 19
-2 10 1 24 7 32 8 10 9 16 2 21 -6 3 -10 24 -9 46 1 40 11 58 23 39 4 -7 13
-6 27 1 17 9 24 8 33 -4 9 -12 15 -13 30 -4 11 7 74 15 140 18 111 5 106 5
-72 7 l-193 2 0 -67z"/>
<path d="M1248 1516 c-141 -50 -198 -106 -143 -142 23 -15 26 -15 52 4 32 22
154 72 176 72 11 0 14 12 13 45 -1 53 -4 54 -98 21z m67 -5 c-3 -5 2 -16 10
-25 11 -10 12 -17 4 -22 -6 -3 -15 -1 -19 6 -5 8 -9 6 -14 -7 -7 -17 -8 -17
-22 1 -19 26 -18 46 2 46 10 0 14 -5 10 -16 -3 -8 -2 -12 4 -9 6 3 10 13 10
21 0 8 5 14 11 14 5 0 8 -4 4 -9z m-57 -35 c8 -19 8 -25 -3 -30 -13 -5 -25 13
-25 40 0 22 16 16 28 -10z m-34 -21 c5 -22 4 -26 -4 -15 -8 13 -10 13 -10 -1
0 -16 -26 -30 -60 -33 -8 -1 -14 -7 -12 -14 3 -19 -16 -14 -28 7 -14 28 -13
34 9 28 14 -3 18 -1 14 9 -7 20 24 18 35 -2 6 -11 11 -13 16 -5 4 6 2 11 -3
11 -20 0 -11 27 12 37 12 6 22 10 23 9 1 0 4 -14 8 -31z"/>
<path d="M1269 1397 c-21 -14 -35 -32 -37 -47 -2 -22 -1 -22 12 6 14 31 47 50
101 57 28 4 27 4 -6 6 -23 0 -48 -7 -70 -22z"/>
<path d="M1043 1310 c0 -47 2 -66 4 -42 2 23 2 61 0 85 -2 23 -4 4 -4 -43z"/>
<path d="M1185 1336 c0 -36 2 -43 13 -34 15 13 12 70 -3 75 -6 2 -10 -16 -10
-41z"/>
<path d="M1840 1571 c0 -4 14 -12 30 -18 17 -6 30 -7 30 -2 0 4 20 8 44 7 44
0 44 -1 43 -37 0 -20 -5 -39 -11 -43 -7 -4 -6 -14 2 -30 6 -13 13 -45 15 -73
2 -27 4 5 5 73 l2 122 -37 1 c-21 0 -57 2 -80 3 -24 2 -43 0 -43 -3z"/>
<path d="M1703 1518 c3 -13 2 -32 -2 -43 -7 -17 -1 -22 51 -38 32 -10 81 -31
109 -48 62 -36 99 -32 99 11 0 15 -8 34 -17 42 -37 32 -136 75 -217 93 -26 5
-28 4 -23 -17z m43 -20 c1 -8 -2 -22 -7 -29 -12 -21 -30 2 -22 29 6 25 25 25
29 0z m37 -19 l-3 -24 10 22 c8 21 12 22 37 11 88 -39 139 -83 96 -83 -6 0
-15 -4 -19 -8 -4 -4 -16 1 -27 10 -10 10 -21 17 -23 16 -10 -7 -24 -2 -24 7 0
5 6 7 14 4 8 -3 17 0 21 6 11 17 -5 26 -16 10 -9 -12 -10 -11 -5 5 5 17 3 16
-15 -5 l-21 -25 5 28 c2 15 0 27 -4 27 -5 0 -9 -9 -9 -20 0 -16 -4 -18 -22
-11 -13 5 -23 13 -22 20 1 6 2 18 3 27 0 9 7 14 14 11 6 -2 11 -15 10 -28z"/>
<path d="M1545 1301 c3 -5 1 -12 -5 -16 -16 -10 -12 -22 11 -28 15 -4 19 -2
15 10 -3 8 -6 21 -6 29 0 8 -5 14 -11 14 -5 0 -8 -4 -4 -9z"/>
<path d="M1690 1283 c10 -21 7 -26 -10 -25 -3 0 -7 -9 -7 -21 -2 -17 0 -19 7
-7 8 12 10 10 10 -7 0 -13 5 -23 11 -23 6 0 8 7 5 16 -3 8 -2 12 4 9 13 -8 13
-45 1 -45 -5 0 -17 7 -25 16 -9 8 -16 11 -16 4 0 -6 11 -16 25 -22 14 -6 25
-16 25 -22 0 -6 5 -4 11 4 9 12 10 11 6 -7 -3 -13 -1 -23 3 -23 19 0 -8 -83
-33 -101 -5 -3 0 -10 10 -14 17 -7 17 -7 -1 -14 -11 -4 -20 -15 -22 -24 -1
-10 2 -15 6 -12 5 3 14 -3 19 -14 15 -26 14 -31 -4 -25 -8 4 -15 1 -15 -5 0
-6 5 -11 11 -11 6 0 20 -10 31 -22 18 -21 19 -21 13 -3 -17 47 -17 125 0 178
17 54 17 57 -4 119 -12 34 -33 77 -47 93 -18 22 -22 24 -14 8z"/>
<path d="M1576 1281 c-4 -6 -3 -11 2 -11 6 0 8 -9 5 -20 -6 -21 20 -29 32 -10
5 8 11 7 21 -1 16 -13 30 -6 20 10 -4 5 -20 8 -36 6 -17 -2 -29 -1 -26 3 3 5
1 14 -3 21 -6 9 -11 10 -15 2z"/>
<path d="M1502 1255 c48 -58 60 -66 75 -53 15 12 14 13 -2 17 -10 1 -28 14
-40 27 -25 27 -55 35 -33 9z"/>
<path d="M1291 1248 c-1 -10 -5 -18 -9 -18 -11 0 -35 -51 -28 -58 3 -2 0 -14
-6 -26 -7 -11 -13 -30 -15 -41 -2 -11 -5 -31 -8 -45 -3 -14 -2 -20 2 -15 14
18 34 16 33 -2 -4 -33 0 -43 14 -43 8 0 18 4 21 10 3 6 -1 7 -9 4 -22 -8 -20
8 5 50 23 40 39 46 39 17 0 -11 5 -23 10 -26 7 -4 9 2 4 19 -4 16 -2 26 5 26
6 0 11 -10 11 -22 l0 -21 25 23 c28 26 33 60 9 60 -8 0 -12 -4 -9 -10 3 -5 -2
-10 -12 -10 -11 0 -25 -6 -32 -12 -11 -11 -13 -10 -8 4 7 20 -8 33 -25 21 -7
-4 -22 -7 -33 -6 -16 1 -16 1 -2 -3 9 -3 17 -10 17 -15 0 -19 -2 -24 -11 -22
-4 2 -6 -4 -3 -12 4 -8 1 -15 -5 -15 -6 0 -11 6 -11 13 0 8 -4 7 -10 -3 -8
-12 -10 -12 -10 -1 0 8 8 20 18 27 16 13 16 14 -1 8 -15 -6 -16 -3 -6 22 6 16
13 40 15 53 6 30 25 49 44 44 10 -3 11 -2 4 4 -6 4 -14 15 -17 23 -4 12 -6 11
-6 -2z"/>
<path d="M1491 1242 c-1 -7 -5 -11 -9 -8 -5 3 -9 -1 -9 -9 0 -14 10 -19 29
-16 4 0 5 -6 2 -14 -4 -8 -10 -12 -15 -9 -5 3 -9 -2 -9 -10 0 -9 4 -16 9 -16
4 0 7 -16 4 -35 -2 -24 1 -35 9 -35 8 0 5 -5 -5 -11 -9 -6 -15 -14 -12 -20 4
-5 2 -9 -4 -9 -6 0 -13 -16 -17 -35 -4 -20 -10 -32 -17 -28 -6 3 -7 1 -3 -5 4
-7 2 -12 -5 -12 -7 0 -9 -3 -6 -6 4 -4 13 -2 20 4 8 7 17 9 21 5 4 -4 5 5 2
21 -3 20 -1 26 8 23 8 -3 12 4 11 22 -1 16 9 37 25 54 26 28 27 28 33 8 3 -12
1 -21 -5 -21 -5 0 -6 -4 -3 -10 3 -5 -1 -20 -10 -34 -9 -13 -12 -27 -7 -30 17
-10 61 18 73 47 6 15 18 27 25 27 8 0 14 5 14 10 0 14 27 12 33 -2 3 -10 8
-10 18 1 9 9 9 11 2 7 -8 -5 -13 -1 -13 9 0 11 -5 15 -14 12 -8 -3 -22 3 -31
13 -9 10 -23 16 -31 13 -8 -3 -18 4 -23 18 -7 16 -10 19 -10 7 -1 -11 -7 -15
-21 -11 -24 7 -49 33 -30 33 10 0 9 5 -2 18 -9 9 -18 24 -21 32 -4 10 -6 11
-6 2z m38 -94 c5 -15 4 -27 -5 -35 -19 -19 -21 -17 -20 22 1 40 13 46 25 13z
m85 -60 c-3 -5 -10 -6 -15 -3 -5 3 -6 0 -4 -7 6 -14 -29 -58 -45 -58 -15 0
-12 20 4 26 22 9 26 29 10 59 -12 23 -12 30 -2 37 14 9 61 -40 52 -54z"/>
<path d="M1411 1193 c-1 -7 -7 -13 -14 -13 -8 0 -14 -7 -14 -15 0 -8 4 -15 9
-15 4 0 8 5 8 11 0 5 4 8 9 5 4 -3 17 2 27 10 16 13 16 15 2 10 -9 -3 -19 0
-22 7 -3 9 -5 9 -5 0z"/>
<path d="M1710 1100 c0 -12 -5 -31 -11 -43 -10 -21 -10 -21 5 -3 9 11 16 26
16 34 0 7 5 10 11 6 7 -4 10 -1 7 6 -7 23 -28 23 -28 0z"/>
<path d="M1310 1040 c-8 -5 -11 -12 -8 -16 11 -11 -11 -44 -29 -44 -15 0 -10
-15 5 -15 18 -1 32 -19 32 -41 0 -18 -4 -23 -12 -17 -7 4 -5 -5 5 -20 9 -14
17 -30 17 -34 0 -4 -5 -1 -10 7 -5 8 -10 10 -10 4 0 -7 9 -22 20 -35 10 -13
19 -19 20 -12 0 6 -5 15 -10 18 -7 5 -8 11 -1 19 6 7 6 17 1 26 -5 8 -7 17 -4
21 6 11 -17 69 -28 69 -6 0 -6 6 2 15 11 13 14 13 27 -1 8 -8 13 -24 10 -34
-3 -11 -1 -23 4 -26 5 -3 9 3 9 13 0 14 3 12 14 -7 8 -15 9 -30 4 -37 -12 -15
4 -24 22 -12 13 7 13 9 0 10 -8 1 -1 5 15 9 25 6 26 8 7 9 -16 1 -21 5 -16 13
12 18 12 48 1 48 -5 0 -7 -9 -4 -20 3 -12 0 -20 -7 -20 -17 0 -46 53 -46 83 0
30 -10 39 -30 27z"/>
<path d="M1221 1008 c1 -13 5 -36 9 -53 6 -24 7 -20 6 22 0 29 -4 53 -8 53 -5
0 -7 -10 -7 -22z"/>
<path d="M1547 932 c8 -5 9 -12 2 -22 -8 -11 -12 -12 -16 -2 -7 18 -23 14 -16
-5 4 -11 3 -14 -5 -9 -8 5 -10 2 -6 -8 7 -19 11 -20 29 -3 33 29 41 33 55 29
13 -5 13 -3 1 11 -7 10 -23 17 -35 17 -13 0 -17 -3 -9 -8z"/>
<path d="M1448 888 c14 -18 -3 -33 -50 -46 -10 -2 -18 -9 -18 -14 0 -5 -4 -6
-10 -3 -5 3 -10 2 -10 -4 0 -5 19 -9 43 -9 23 1 34 3 24 6 -26 6 -10 22 23 22
19 0 31 -6 34 -17 7 -21 1 -102 -10 -135 -6 -20 -5 -21 9 -9 9 7 15 16 13 20
-2 3 1 17 7 31 5 14 9 33 8 44 -2 11 2 16 8 12 6 -4 11 -2 11 3 0 6 -4 11 -9
11 -5 0 -7 10 -4 23 4 18 3 19 -6 7 -9 -13 -11 -11 -11 6 0 15 -6 21 -17 20
-12 0 -17 5 -15 15 1 9 -5 20 -14 23 -13 5 -14 3 -6 -6z"/>
<path d="M1733 853 c-12 -2 -60 -40 -107 -83 -46 -43 -94 -83 -106 -90 -12 -6
-19 -14 -16 -17 8 -8 77 39 139 95 29 26 67 54 85 61 17 7 32 20 32 27 0 8 -1
13 -2 13 -2 -1 -13 -4 -25 -6z"/>
<path d="M1322 791 c-11 -7 -10 -10 3 -15 24 -9 75 -7 75 3 0 4 -16 6 -36 4
-23 -2 -33 0 -29 7 7 12 4 12 -13 1z"/>
<path d="M1323 735 c13 -14 50 -12 55 3 2 7 -9 11 -31 10 -26 -1 -32 -4 -24
-13z"/>
<path d="M1129 548 c0 -7 -2 -23 -3 -36 -2 -13 4 -27 13 -32 9 -4 186 -9 394
-9 l377 -1 0 45 0 45 -390 0 c-305 0 -390 -3 -391 -12z m109 -28 c1 -28 -2
-30 -33 -30 -34 0 -45 12 -37 43 3 12 14 17 37 17 29 0 32 -3 33 -30z m67 0
c0 -23 -4 -30 -20 -30 -15 0 -20 7 -21 30 -1 24 3 30 20 30 17 0 21 -6 21 -30z
m105 21 c0 -5 -6 -11 -12 -14 -9 -3 -7 -10 7 -21 20 -15 19 -15 -7 -16 -16 0
-28 6 -29 13 0 10 -2 10 -6 0 -2 -7 -14 -13 -26 -13 -20 1 -20 2 -4 11 21 12
22 29 2 29 -8 0 -15 5 -15 10 0 6 20 10 45 10 25 0 45 -4 45 -9z m118 -13 c3
-14 -3 -18 -25 -18 -22 0 -25 -2 -13 -10 11 -7 6 -10 -20 -10 -23 0 -30 3 -21
9 8 5 11 16 6 30 -6 21 -4 22 32 19 27 -2 39 -8 41 -20z m82 7 c0 -13 -4 -14
-20 -5 -14 7 -20 7 -20 0 0 -5 6 -10 13 -10 8 0 7 -4 -3 -11 -12 -8 -10 -9 8
-4 13 4 22 2 22 -4 0 -6 -17 -11 -38 -11 -37 0 -38 1 -34 30 4 27 8 30 38 30
24 0 34 -5 34 -15z m56 -2 c13 -17 14 -17 8 0 -4 12 -1 17 11 17 12 0 15 -5
11 -16 -3 -9 -6 -22 -6 -30 0 -19 -20 -18 -37 4 -14 16 -14 16 -9 0 3 -11 0
-18 -7 -18 -7 0 -12 14 -13 30 -1 34 20 41 42 13z m114 4 c0 -8 -9 -13 -20
-13 -10 1 -18 -3 -17 -9 1 -5 10 -9 20 -8 24 4 21 -6 -5 -16 -42 -16 -75 18
-46 47 16 16 68 15 68 -1z m90 -3 c0 -11 -6 -14 -22 -9 -16 4 -19 3 -9 -3 11
-8 11 -11 0 -16 -8 -3 -4 -3 9 0 13 3 22 1 22 -6 0 -7 7 -9 18 -5 10 4 13 3 7
-3 -5 -5 -30 -7 -55 -3 -41 5 -45 9 -45 34 -1 25 2 27 37 27 28 0 38 -4 38
-16z"/>
<path d="M1977 646 c-4 -9 -14 -16 -23 -16 -13 0 -10 -5 9 -20 21 -17 27 -31
30 -78 3 -43 4 -38 4 25 0 82 -8 120 -20 89z"/>
</g>
</svg>
